# xmcd
#
# Track frame offsets: 
#        150
#        11224
#        30157
#        50352
#        64066
#        79015
#        95776
#        113220
#        127806
#        142450
#        158942
#        171104
#
# Disc length: 2451 seconds
#
# Revision: 0
# Processed by: cddbd v1.5.2PL0 Copyright (c) Steve Scherf et al.
# Submitted via: ExactAudioCopy v0.99pb5
#
DISCID=9f09910c
DTITLE=Georges Hamel - Ma vie en chansons
DYEAR=2008
DGENRE=Country
TTITLE0=Je promène mes chansons
TTITLE1=Une fleur dans la nuit
TTITLE2=Grand-maman
TTITLE3=Le paradis des musiciens
TTITLE4=Nous vieillirons ensemble
TTITLE5=La chanson du prisonnier
TTITLE6=Un air de printemps
TTITLE7=Il se souvient du temps
TTITLE8=Seigneur mon ami
TTITLE9=Une fleur pour vous
TTITLE10=Merci de votre amitié
TTITLE11=Ces belles années
EXTD=
EXTT0=
EXTT1=
EXTT2=
EXTT3=
EXTT4=
EXTT5=
EXTT6=
EXTT7=
EXTT8=
EXTT9=
EXTT10=
EXTT11=
PLAYORDER=
